<svg xmlns="http://www.w3.org/2000/svg" width="486" height="415" viewBox="0 0 486 415" fill="none">
  <path d="M244.439 276.16C249.333 276.162 254.068 274.417 257.79 271.238C261.512 268.06 263.978 263.658 264.743 258.823C265.508 253.989 264.522 249.04 261.962 244.868C259.403 240.696 255.439 237.574 250.783 236.065C250.783 236.065 250.783 134.961 250.783 111.36C250.773 111.208 250.822 111.059 250.92 110.942C251.017 110.825 251.156 110.75 251.307 110.732C251.458 110.714 251.61 110.755 251.732 110.846C251.854 110.937 251.936 111.071 251.962 111.221C282.383 231.863 326.442 250.626 326.442 250.626C290.63 290.017 289.292 326.286 289.292 326.286V360.503H199.586V326.286C199.586 326.286 198.238 290.017 162.426 250.626C162.426 250.626 206.495 231.863 236.906 111.221C236.932 111.071 237.014 110.937 237.136 110.846C237.258 110.755 237.41 110.714 237.561 110.732C237.712 110.75 237.851 110.825 237.948 110.942C238.046 111.059 238.095 111.208 238.085 111.36V236.065C233.429 237.574 229.465 240.696 226.906 244.868C224.346 249.04 223.36 253.989 224.125 258.823C224.89 263.658 227.356 268.06 231.078 271.238C234.8 274.417 239.535 276.162 244.429 276.16H244.439ZM0.172974 415H199.289V365.142H288.627V415H485.087L242.625 0.749939L0.172974 415Z" fill="#207B3E"/>
</svg>
