<svg xmlns="http://www.w3.org/2000/svg" width="262" height="211" viewBox="0 0 262 211" fill="none">
  <path fill-rule="evenodd" clip-rule="evenodd" d="M214.604 40.9482L186.448 23.881L204.364 0L232.521 17.4804L214.604 40.9482ZM45.0138 210.322C37.2773 210.322 30.5179 208.974 24.899 206.347C19.2797 203.709 14.6584 200.441 10.9733 196.534C7.2677 192.694 4.56015 188.494 2.70756 183.934C0.936126 179.467 0 175.267 0 171.574C0 162.403 1.16032 153.441 3.35942 144.828C5.55814 136.229 9.63032 127.334 15.4527 118.174L21.7031 120.654C16.7964 133.747 14.3738 144.401 14.3738 152.721C14.3738 155.214 14.9439 157.989 16.1449 161.043C17.3664 164.109 19.5043 167.016 22.6192 169.789C25.7544 172.562 29.9482 174.909 35.3637 176.762C40.6976 178.682 47.5792 179.614 56.0487 179.614H242.334C242.762 177.255 243.108 174.628 243.352 171.788C243.474 169.015 243.617 166.588 243.617 164.669C243.617 160.334 243.189 155.721 242.334 150.735C241.56 145.761 240.563 141.561 239.423 138.295H236.308C234.943 140.215 233.376 142.282 231.605 144.48C229.895 146.761 227.899 148.748 225.762 150.667C223.645 152.52 221.283 154.149 218.88 155.427C216.458 156.775 213.832 157.414 211.063 157.414C206.502 157.414 201.595 156.989 196.465 156.148C191.294 155.36 186.591 154.082 182.254 152.294C177.999 150.588 174.375 148.322 171.525 145.482C168.675 142.628 167.25 139.069 167.25 134.949C167.25 126.214 168.817 117.454 171.952 108.789C175.067 100.108 179.057 92.2818 183.964 85.2417C188.79 78.2809 194.266 72.5887 200.312 68.3215C206.359 63.989 212.344 61.8533 218.167 61.8533C222.28 61.8533 226.27 63.0687 230.057 65.4139C233.803 67.7613 237.284 70.9619 240.481 74.9339C243.698 78.9875 246.548 83.6824 249.011 88.9472C251.516 94.2139 253.653 99.7476 255.485 105.656C257.277 111.562 258.702 117.6 259.618 123.72C260.615 129.828 261.104 135.667 261.104 141.201C261.104 144.401 260.9 147.748 260.473 151.307C260.046 154.856 259.333 159.202 258.274 164.388C257.277 169.654 255.79 175.909 253.938 183.242C252.085 190.628 249.662 199.656 246.751 210.322H45.0129L45.0138 210.322ZM205.443 94.7084C202.654 94.7084 199.885 95.708 197.259 97.6138C194.632 99.534 192.291 101.895 190.296 104.522C188.301 107.148 186.672 109.788 185.39 112.482C184.107 115.255 183.455 117.242 183.455 118.667C186.021 121.735 190.56 124.362 197.258 126.695C203.936 128.975 211.49 130.121 219.796 130.121C220.936 130.121 222.28 130.042 223.786 129.907C225.333 129.76 226.84 129.547 228.408 129.268C229.894 128.975 231.38 128.694 232.744 128.334C234.169 127.988 235.147 127.627 235.88 127.202C234.515 123.002 232.663 119.028 230.322 115.108C228.042 111.202 225.496 107.787 222.707 104.735C219.939 101.681 217.109 99.1875 214.116 97.4142C211.062 95.6288 208.212 94.7084 205.443 94.7084H205.443Z" fill="white" fill-opacity="0.12"/>
</svg>