<svg xmlns="http://www.w3.org/2000/svg" width="20" height="242" viewBox="0 0 20 242" fill="none">
  <path d="M3 239C3 232.445 16.733 232.445 16.733 225.891C16.733 219.336 3 219.336 3 212.781C3 206.225 16.733 206.225 16.733 199.67C16.733 193.115 3 193.115 3 186.56C3 180.005 16.733 180.005 16.733 173.449C16.733 166.894 3 166.894 3 160.339C3 153.785 16.733 153.785 16.733 147.231C16.733 140.677 3 140.677 3 134.122C3 127.566 16.733 127.566 16.733 121.011C16.733 114.456 2.99999 114.456 2.99999 107.901C2.99999 101.346 16.733 101.346 16.733 94.7912C16.733 88.236 2.99999 88.2359 2.99999 81.6801C2.99999 75.1236 16.733 75.1237 16.733 68.5679C16.733 62.0114 2.99999 62.0114 2.99999 55.4549C2.99999 48.8984 16.733 48.8984 16.733 42.3425C16.733 35.7861 2.99999 35.7862 2.99999 29.2297C2.99999 22.672 16.733 22.672 16.733 16.1149C16.733 9.55711 2.99999 9.55711 2.99999 3" stroke="white" stroke-opacity="0.12" stroke-width="5" stroke-miterlimit="10" stroke-linecap="round"/>
</svg>