<svg xmlns="http://www.w3.org/2000/svg" width="115" height="99" viewBox="0 0 115 99" fill="none">
  <path d="M27.848 92.7784C27.848 95.7464 25.442 98.1519 22.4747 98.1519C19.5067 98.1519 17.1013 95.7457 17.1013 92.7784C17.1013 89.8105 19.5074 87.4051 22.4747 87.4051C25.442 87.4051 27.848 89.8105 27.848 92.7784Z" fill="white" fill-opacity="0.12"/>
  <path d="M27.848 63.7277C27.848 66.6957 25.442 69.1011 22.4747 69.1011C19.5067 69.1011 17.1013 66.695 17.1013 63.7277C17.1013 60.7598 19.5074 58.3544 22.4747 58.3544C25.442 58.3544 27.848 60.7598 27.848 63.7277Z" fill="white" fill-opacity="0.12"/>
  <path d="M27.848 34.6775C27.848 37.6454 25.442 40.0508 22.4747 40.0508C19.5067 40.0508 17.1013 37.6454 17.1013 34.6775C17.1013 31.7095 19.5074 29.3041 22.4747 29.3041C25.442 29.3041 27.848 31.7095 27.848 34.6775Z" fill="white" fill-opacity="0.12"/>
  <path d="M27.848 5.62659C27.848 8.59453 25.442 11 22.4747 11C19.5067 11 17.1013 8.59388 17.1013 5.62659C17.1013 2.6593 19.5074 0.25326 22.4747 0.253259C25.442 0.253259 27.848 2.65865 27.848 5.62659Z" fill="white" fill-opacity="0.12"/>
  <path d="M56.8987 92.7784C56.8987 95.7464 54.4926 98.1519 51.5253 98.1519C48.5573 98.1519 46.1519 95.7457 46.1519 92.7784C46.1519 89.8105 48.558 87.4051 51.5253 87.4051C54.4932 87.4051 56.8987 89.8105 56.8987 92.7784Z" fill="white" fill-opacity="0.12"/>
  <path d="M56.8987 63.7277C56.8987 66.6957 54.4926 69.1011 51.5253 69.1011C48.5573 69.1011 46.1519 66.695 46.1519 63.7277C46.1519 60.7598 48.558 58.3544 51.5253 58.3544C54.4932 58.3544 56.8987 60.7598 56.8987 63.7277Z" fill="white" fill-opacity="0.12"/>
  <path d="M56.8987 34.6775C56.8987 37.6454 54.4926 40.0508 51.5253 40.0508C48.5573 40.0508 46.1519 37.6454 46.1519 34.6775C46.1519 31.7095 48.558 29.3041 51.5253 29.3041C54.4932 29.3041 56.8987 31.7095 56.8987 34.6775Z" fill="white" fill-opacity="0.12"/>
  <path d="M56.8987 5.62659C56.8987 8.59453 54.4926 11 51.5253 11C48.5573 11 46.1519 8.59388 46.1519 5.62659C46.1519 2.6593 48.558 0.25326 51.5253 0.253259C54.4932 0.253259 56.8987 2.65865 56.8987 5.62659Z" fill="white" fill-opacity="0.12"/>
  <path d="M85.9493 92.7784C85.9493 95.7464 83.5432 98.1519 80.5759 98.1519C77.608 98.1519 75.2026 95.7457 75.2026 92.7784C75.2026 89.8105 77.608 87.4051 80.5759 87.4051C83.5432 87.4051 85.9493 89.8105 85.9493 92.7784Z" fill="white" fill-opacity="0.12"/>
  <path d="M85.9493 63.7277C85.9493 66.6957 83.5432 69.1011 80.5759 69.1011C77.608 69.1011 75.2026 66.695 75.2026 63.7277C75.2026 60.7598 77.608 58.3544 80.5759 58.3544C83.5432 58.3544 85.9493 60.7598 85.9493 63.7277Z" fill="white" fill-opacity="0.12"/>
  <path d="M85.9493 34.6775C85.9493 37.6454 83.5432 40.0508 80.5759 40.0508C77.608 40.0508 75.2026 37.6454 75.2026 34.6775C75.2026 31.7095 77.608 29.3041 80.5759 29.3041C83.5432 29.3041 85.9493 31.7095 85.9493 34.6775Z" fill="white" fill-opacity="0.12"/>
  <path d="M85.9493 5.62659C85.9493 8.59453 83.5432 11 80.5759 11C77.608 11 75.2026 8.59388 75.2026 5.62659C75.2026 2.6593 77.608 0.25326 80.5759 0.253259C83.5432 0.253259 85.9493 2.65865 85.9493 5.62659Z" fill="white" fill-opacity="0.12"/>
  <path d="M115 92.7784C115 95.7464 112.594 98.1519 109.627 98.1519C106.659 98.1519 104.253 95.7457 104.253 92.7784C104.253 89.8105 106.659 87.4051 109.627 87.4051C112.595 87.4051 115 89.8105 115 92.7784Z" fill="white" fill-opacity="0.12"/>
  <path d="M115 63.7277C115 66.6957 112.594 69.1011 109.627 69.1011C106.659 69.1011 104.253 66.695 104.253 63.7277C104.253 60.7598 106.659 58.3544 109.627 58.3544C112.595 58.3544 115 60.7598 115 63.7277Z" fill="white" fill-opacity="0.12"/>
  <path d="M115 34.6775C115 37.6454 112.594 40.0508 109.627 40.0508C106.659 40.0508 104.253 37.6454 104.253 34.6775C104.253 31.7095 106.659 29.3041 109.627 29.3041C112.595 29.3041 115 31.7095 115 34.6775Z" fill="white" fill-opacity="0.12"/>
  <path d="M115 5.62659C115 8.59453 112.594 11 109.627 11C106.659 11 104.253 8.59388 104.253 5.62659C104.253 2.6593 106.659 0.25326 109.627 0.253259C112.595 0.253259 115 2.65865 115 5.62659Z" fill="white" fill-opacity="0.12"/>
</svg>