<svg xmlns="http://www.w3.org/2000/svg" width="79" height="80" viewBox="0 0 79 80" fill="none">
  <path d="M73.8195 40C47.8758 46.231 43.3129 51.282 37.6841 80C32.0551 51.282 27.492 46.231 1.54843 40C27.492 33.769 32.0551 28.718 37.6841 0C43.3129 28.718 47.8758 33.769 73.8195 40Z" fill="white" fill-opacity="0.12"/>
  <path d="M78.3957 14.106C70.2228 16.0686 68.785 17.6595 67.0119 26.7065C65.2386 17.6597 63.801 16.0686 55.6279 14.106C63.8008 12.1424 65.2386 10.5513 67.0119 1.50391C68.785 10.5513 70.2226 12.1424 78.3957 14.106Z" fill="white" fill-opacity="0.12"/>
  <path d="M13.819 61.4265C8.85848 62.6177 7.98546 63.5832 6.90959 69.075C5.83334 63.5832 4.9607 62.6175 0 61.4265C4.9607 60.2344 5.83334 59.2688 6.90959 53.7778C7.98546 59.269 8.85848 60.2346 13.819 61.4265Z" fill="white" fill-opacity="0.12"/>
</svg>